P2
# Affiche le mot "FEEP" (exemple de la page principale de Netpbm à propos de PGM)
24 2
15
1  3  3  3  3  1  1  7  7  7  7  1  1 11 11 11 11  1  1 10 10 10 10  1
2  3  2  2  2  2  2  7  2  2  2  0  0 11  0  0  0  0  0 10  0  0 10  0